<svg width="800" height="600" xmlns="http://www.w3.org/2000/svg">

 <g>
  <title>Layer 1</title>
  <line stroke-linecap="undefined" stroke-linejoin="undefined" id="svg_1" y2="297" x2="404" y1="94" x1="248" stroke="#000" fill="none"/>
  <line stroke-linecap="undefined" stroke-linejoin="undefined" id="svg_2" y2="89" x2="623" y1="316" x1="435" stroke="#000" fill="none"/>
  <line stroke-linecap="undefined" stroke-linejoin="undefined" id="svg_3" y2="356" x2="300" y1="162" x1="509" stroke="#000" fill="none"/>
  <line stroke-linecap="undefined" stroke-linejoin="undefined" id="svg_4" y2="106" x2="477" y1="370" x1="254" stroke="#000" fill="none"/>
  <line stroke="#000" stroke-linecap="undefined" stroke-linejoin="undefined" id="svg_5" y2="215" x2="336" y1="93" x1="495" fill="none"/>
  <rect id="svg_6" height="113" width="57" y="137" x="187" stroke="#000" fill="none"/>
  <path id="svg_7" d="m88.56005,24.545l0,0c0,-17.94925 12.75989,-32.5 28.5,-32.5l0,0c7.55867,0 14.80776,3.4241 20.15254,9.51903c5.34479,6.09493 8.34746,14.36143 8.34746,22.98097l0,0c0,17.94925 -12.75989,32.5 -28.5,32.5l0,0c-15.74011,0 -28.5,-14.55075 -28.5,-32.5zm14.25,0l0,0c0,8.97462 6.37995,16.25 14.25,16.25c7.87006,0 14.25,-7.27538 14.25,-16.25c0,-8.97462 -6.37995,-16.25 -14.25,-16.25l0,0c-7.87005,0 -14.25,7.27538 -14.25,16.25z" stroke="#000" fill="none"/>
  <path id="svg_8" d="m184.17005,288.61505l0,0c0,-131.44377 98.72122,-238.00002 220.49999,-238.00002l0,0c58.48021,0 114.56527,25.07491 155.91701,69.70858c41.35178,44.63368 64.58298,105.16989 64.58298,168.29144l0,0c0,131.44375 -98.72122,238.00002 -220.49999,238.00002l0,0c-121.77876,0 -220.49999,-106.55626 -220.49999,-238.00002zm110.25,0l0,0c0,65.72187 49.36064,119.00001 110.25,119.00001c60.8894,0 110.25,-53.27814 110.25,-119.00001c0,-65.72187 -49.36062,-119.00001 -110.25,-119.00001l0,0c-60.88936,0 -110.25,53.27816 -110.25,119.00001z" stroke="#000" fill="none"/>
  <rect id="svg_9" height="407" width="58" y="90" x="52" stroke="#000" fill="none"/>
  <path d="m548,30c2,0 19.91479,15.55262 83,25c49.53754,7.41853 89.68286,4.99137 118,13c10.36383,2.93108 9.84723,5.04132 11,9c0.88416,3.03616 1,11 1,13c0,6 -2.79663,14.09316 -7,23c-5.72595,12.13316 -9.46277,24.93004 -16,34c-0.8269,1.14726 -0.69684,-0.09019 -5,-14c-3.73834,-12.08406 -7.83502,-25.01489 -9,-37c-0.8761,-9.01291 -1.3454,-8.99337 -1,0c0.50037,13.0288 1.85529,18.05244 1,25c-0.50378,4.09222 -2.71021,7.04291 -3,8c-1.04486,3.45085 -4.95544,2.63431 -7,-7c-0.20758,-0.97822 -4.49347,-10.87856 -5,-14c-0.16016,-0.98709 -0.7243,-0.96125 -1,0c-2.60077,9.06841 -7.43286,14.80243 -10,21c-2.42029,5.84312 -3,7 -3,8c0,0 0,-2 -6,-14c-1,-2 -3.51929,-7.55819 -6,-11c-1.30743,-1.814 -1.9447,-1.99847 -2,-1c-0.50079,9.04153 -2,17 -2,19c0,7 -0.4588,12.69344 -1,14c-0.38269,0.92387 -0.18835,1.05634 -1,-2c-1.30878,-4.92821 -2.99023,-11.79025 -4,-19c-0.13867,-0.99033 -1.24103,-1.65113 -2,-1c-9.9826,8.56429 -2.7627,19.05042 -5,29c-0.90454,4.02266 -0.87781,4.99251 -1,4c-0.50378,-4.09221 -3.49292,-13.23401 -6,-18c-1.67859,-3.19099 -3.21179,-4.61542 -4,-4c-3.24988,2.53741 -2.77026,11.02675 -3,12c-2.05499,8.705 -6,10 -7,12c-1,2 -1.1062,1.04967 -2,-1c-3.41522,-7.83176 -5.69342,-14.4588 -7,-15c-0.92389,-0.38269 -2.56952,2.133 -4,6c-1.55157,4.19435 -4,14 -5,19c-1,5 -1,7 -1,6c0,-1 -3.34454,-7.74283 -7,-13c-6.65759,-9.5748 -7,-11 -8,-11c-1,0 -1.37134,0.74675 -4,5c-2.35114,3.80423 -5.73138,8.53148 -10,16c-4.88721,8.55077 -3.82373,15.51375 -6,15c-0.97327,-0.22975 -0.19086,-2.95468 -2,-11c-1.11865,-4.97479 -4,-10 -5,-10c-1,0 -0.8244,0.09789 -2,2c-2.62866,4.25325 -6,9 -8,10l-2,3l0,1" id="svg_10" stroke="#000" fill="none"/>
  <rect id="svg_11" height="113" width="149" y="139" x="574" stroke="#000" fill="none"/>
  <rect id="svg_12" height="84" width="47" y="174" x="605" stroke="#000" fill="none"/>
  <rect stroke="#000" id="svg_13" height="52" width="62" y="124" x="493" fill="none"/>
  <path d="m393,409c1,0 1,0 2,0c3,0 3,-1 4,-1c2,0 4,0 4,0c4,0 5,0 7,0c2,0 7.08026,0.31073 10,1c4.35251,1.0275 8.83551,2.99399 18,4c1.98807,0.21823 5,3 9,4c4,1 9.0769,1.73145 13,3c5.12396,1.65686 14.00751,3.87781 15,4c4.09222,0.50378 5.86829,1.28857 10,3c2.92157,1.21014 4,1 5,1c3,0 11.86588,-1.20889 18,-5c6.85815,-4.23859 11,-8 15,-12c2,-2 4,-3 4,-3c1,-1 3.69257,-4.186 5,-6c2.48071,-3.4418 7,-9 8,-11c1,-2 2.87781,-6.00751 3,-7c0.50378,-4.09222 2,-11 2,-13c0,-3 1,-8 1,-13l0,-4l0,-1" id="svg_14" stroke="#000" fill="none"/>
  <path d="m697,461c-2,4 -5,8 -7,16c-1,4 -3.47229,8.47232 -8,13c-4.52771,4.52768 -7.66907,6.57336 -16,11c-8.69733,4.62131 -19.79291,9.71317 -29,12c-23.61359,5.86505 -42.94702,8.24292 -47,9c-7.92517,1.48041 -25,4 -33,4l-4,1l-9,1l-5,1" id="svg_15" stroke="#000" fill="none"/>
  <path d="m235,586c-1,0 -1.72687,-0.03802 -2,-1c-21.83005,-76.88596 -67,-102 -78,-124l-7,-14l-1,-1" id="svg_16" stroke="#000" fill="none"/>
  <path d="m145,497c1,5 5,12 11,20l4,8l10,9l3,2" id="svg_17" stroke="#000" fill="none"/>
  <rect id="svg_18" height="124" width="69" y="17" x="166" stroke="#000" fill="none"/>
  <rect id="svg_19" height="98" width="94" y="215" x="298" stroke="#000" fill="none"/>
  <rect id="svg_20" height="40" width="29" y="370" x="468" stroke="#000" fill="none"/>
  <rect id="svg_21" height="22" width="44" y="426" x="518" stroke="#000" fill="none"/>
  <rect id="svg_22" height="0" width="1" y="451" x="636" stroke="#000" fill="none"/>
  <rect id="svg_23" height="56" width="2" y="355" x="649" stroke="#000" fill="none"/>
  <rect id="svg_24" height="0" width="1" y="277" x="614" stroke="#000" fill="none"/>
  <rect id="svg_25" height="12" width="54" y="250" x="521" stroke="#000" fill="none"/>
  <rect id="svg_26" height="8" width="27" y="243" x="432" stroke="#000" fill="none"/>
  <rect id="svg_27" height="26" width="35" y="262" x="365" stroke="#000" fill="none"/>
  <rect id="svg_28" height="55" width="26" y="307" x="304" stroke="#000" fill="none"/>
  <rect id="svg_29" height="34" width="6" y="379" x="303" stroke="#000" fill="none"/>
  <rect id="svg_30" height="30" width="65" y="500" x="340" stroke="#000" fill="none"/>
  <rect id="svg_31" height="13" width="63" y="480" x="552" stroke="#000" fill="none"/>
  <rect id="svg_32" height="27" width="16" y="457" x="663" stroke="#000" fill="none"/>
  <rect id="svg_33" height="51" width="50" y="314" x="649" stroke="#000" fill="none"/>
  <rect id="svg_34" height="6" width="61" y="267" x="530" stroke="#000" fill="none"/>
  <rect id="svg_35" height="13" width="31" y="273" x="385" stroke="#000" fill="none"/>
  <rect id="svg_36" height="44" width="54" y="301" x="259" stroke="#000" fill="none"/>
  <rect id="svg_37" height="32" width="38" y="361" x="191" stroke="#000" fill="none"/>
  <rect id="svg_38" height="22" width="2" y="419" x="163" stroke="#000" fill="none"/>
  <rect id="svg_39" height="46" width="128" y="464" x="188" stroke="#000" fill="none"/>
  <rect id="svg_40" height="27" width="74" y="524" x="354" stroke="#000" fill="none"/>
  <rect id="svg_41" height="3" width="13" y="527" x="522" stroke="#000" fill="none"/>
  <rect id="svg_42" height="35" width="24" y="458" x="617" stroke="#000" fill="none"/>
  <rect id="svg_43" height="36" width="19" y="336" x="661" stroke="#000" fill="none"/>
  <rect id="svg_44" height="13" width="14" y="262" x="587" stroke="#000" fill="none"/>
  <rect id="svg_45" height="25" width="51" y="175" x="476" stroke="#000" fill="none"/>
  <rect id="svg_46" height="15" width="38" y="114" x="369" stroke="#000" fill="none"/>
  <rect id="svg_47" height="1" width="31" y="93" x="297" stroke="#000" fill="none"/>
  <rect id="svg_48" height="32" width="26" y="94" x="234" stroke="#000" fill="none"/>
  <rect id="svg_49" height="42" width="19" y="162" x="188" stroke="#000" fill="none"/>
  <rect id="svg_50" height="27" width="3" y="229" x="182" stroke="#000" fill="none"/>
  <rect id="svg_51" height="50" width="50" y="288" x="209" stroke="#000" fill="none"/>
  <rect id="svg_52" height="13" width="42" y="353" x="397" stroke="#000" fill="none"/>
  <rect id="svg_53" height="0" width="56" y="366" x="559" stroke="#000" fill="none"/>
  <rect id="svg_54" height="29" width="3" y="309" x="677" stroke="#000" fill="none"/>
  <rect id="svg_55" height="27" width="46" y="196" x="622" stroke="#000" fill="none"/>
  <rect id="svg_56" height="23" width="31" y="152" x="515" stroke="#000" fill="none"/>
  <rect id="svg_57" height="55" width="7" y="205" x="453" stroke="#000" fill="none"/>
  <rect id="svg_58" height="22" width="38" y="283" x="503" stroke="#000" fill="none"/>
  <rect id="svg_59" height="3" width="2" y="306" x="609" stroke="#000" fill="none"/>
  <rect id="svg_60" height="32" width="10" y="280" x="631" stroke="#000" fill="none"/>
  <rect id="svg_61" height="16" width="1" y="165" x="644" stroke="#000" fill="none"/>
  <rect id="svg_62" height="13" width="50" y="93" x="542" stroke="#000" fill="none"/>
  <rect id="svg_63" height="11" width="53" y="78" x="390" stroke="#000" fill="none"/>
  <rect id="svg_64" height="33" width="32" y="106" x="283" stroke="#000" fill="none"/>
  <rect id="svg_65" height="35" width="60" y="176" x="162" stroke="#000" fill="none"/>
  <rect id="svg_66" height="22" width="35" y="228" x="64" stroke="#000" fill="none"/>
  <rect id="svg_67" height="16" width="1" y="228" x="56" stroke="#000" fill="none"/>
  <rect id="svg_68" height="32" width="44" y="101" x="100" stroke="#000" fill="none"/>
  <rect id="svg_69" height="6" width="31" y="17" x="346" stroke="#000" fill="none"/>
  <rect id="svg_70" height="12" width="32" y="10" x="557" stroke="#000" fill="none"/>
  <rect id="svg_71" height="2" width="9" y="2" x="702" stroke="#000" fill="none"/>
  <rect id="svg_72" height="17" width="9" y="6" x="771" stroke="#000" fill="none"/>
  <rect id="svg_73" height="87" width="18" y="43" x="762" stroke="#000" fill="none"/>
  <rect id="svg_74" height="35" width="31" y="145" x="709" stroke="#000" fill="none"/>
  <rect id="svg_75" height="43" width="20" y="185" x="659" stroke="#000" fill="none"/>
  <rect id="svg_76" height="103" width="17" y="253" x="656" stroke="#000" fill="none"/>
  <rect transform="rotate(-1.78348 714 449.5)" id="svg_77" height="87" width="42" y="406" x="693" stroke="#000" fill="none"/>
  <rect id="svg_78" height="136" width="199" y="117" x="251" stroke="#000" fill="none"/>
  <rect id="svg_79" height="86" width="106" y="295" x="541" stroke="#000" fill="none"/>
  <rect id="svg_80" height="48" width="227" y="389" x="370" stroke="#000" fill="none"/>
  <rect id="svg_81" height="23" width="35" y="453" x="292" stroke="#000" fill="none"/>
  <rect id="svg_82" height="22" width="3" y="534" x="127" stroke="#000" fill="none"/>
  <rect id="svg_83" height="5" width="275" y="543" x="392" stroke="#000" fill="none"/>
  <rect stroke="#000" id="svg_84" height="39" width="122" y="545" x="576" fill="none"/>
  <line id="svg_85" y2="213" x2="593" y1="27" x1="36" stroke="#000" fill="none"/>
  <line id="svg_86" y2="100" x2="614" y1="124" x1="614" stroke="#000" fill="none"/>
  <line id="svg_87" y2="340" x2="689" y1="179" x1="580" stroke="#000" fill="none"/>
  <line id="svg_88" y2="463" x2="713" y1="333" x1="695" stroke="#000" fill="none"/>
  <line id="svg_89" y2="149" x2="516" y1="474" x1="730" stroke="#000" fill="none"/>
  <line id="svg_90" y2="287" x2="326" y1="177" x1="444" stroke="#000" fill="none"/>
  <line id="svg_91" y2="451" x2="162" y1="380" x1="185" stroke="#000" fill="none"/>
  <line id="svg_92" y2="538" x2="462" y1="509" x1="256" stroke="#000" fill="none"/>
  <line id="svg_93" y2="454" x2="327" y1="538" x1="622" stroke="#000" fill="none"/>
  <line id="svg_94" y2="-9" x2="208" y1="339" x1="54" stroke="#000" fill="none"/>
  <line id="svg_95" y2="526" x2="483" y1="79" x1="254" stroke="#000" fill="none"/>
  <line id="svg_96" y2="169" x2="653" y1="514" x1="533" stroke="#000" fill="none"/>
  <line id="svg_97" y2="218" x2="173" y1="136" x1="667" stroke="#000" fill="none"/>
  <line id="svg_98" y2="493" x2="393" y1="326" x1="250" stroke="#000" fill="none"/>
  <line id="svg_99" y2="133" x2="417" y1="478" x1="226" stroke="#000" fill="none"/>
  <line id="svg_100" y2="441" x2="621" y1="316" x1="590" stroke="#000" fill="none"/>
  <line id="svg_101" y2="255" x2="382" y1="424" x1="480" stroke="#000" fill="none"/>
  <line id="svg_102" y2="18" x2="39" y1="71" x1="723" stroke="#000" fill="none"/>
  <line id="svg_103" y2="341" x2="46" y1="26" x1="126" stroke="#000" fill="none"/>
  <line id="svg_104" y2="495" x2="267" y1="590" x1="232" stroke="#000" fill="none"/>
  <line id="svg_105" y2="457" x2="341" y1="541" x1="399" stroke="#000" fill="none"/>
  <line id="svg_106" y2="413" x2="495" y1="490" x1="694" stroke="#000" fill="none"/>
  <line id="svg_107" y2="367" x2="540" y1="449" x1="207" stroke="#000" fill="none"/>
  <line id="svg_108" y2="228" x2="481" y1="422" x1="192" stroke="#000" fill="none"/>
  <path id="svg_109" d="m356.20502,284.84746l29.58206,-28.11761l41.83587,0l29.58206,28.11761l0,39.76481l-29.58206,28.11761l-41.83587,0l-29.58206,-28.11761l0,-39.76481z" stroke="#000" fill="#8391AE"/>
  <path id="svg_110" d="m54.73001,381.96672l23.43134,-68.53665l33.13733,0l23.43134,68.53665l0,96.92668l-23.43134,68.53665l-33.13733,0l-23.43134,-68.53665l0,-96.92668z" stroke="#000" fill="#5B9BA2"/>
  <path id="svg_111" d="m483.5748,392.12435l40.12616,-36.90435l56.74767,0l40.12616,36.90435l0,52.1913l-40.12616,36.90436l-56.74767,0l-40.12616,-36.90436l0,-52.1913z" opacity="NaN" stroke="#000" fill="#5B9BA2"/>
  <path id="svg_112" d="m619.89,481.02641l0.29289,-0.43641l0.41422,0l0.29289,0.43641l0,0.61718l-0.29289,0.43641l-0.41422,0l-0.29289,-0.43641l0,-0.61718z" stroke="#000" fill="#5B9BA2"/>
  <ellipse ry="95" rx="12.5" id="svg_113" cy="210" cx="234.5" stroke="#000" fill="#EDB6DC"/>
  <ellipse ry="87.5" rx="89.5" id="svg_114" cy="477.5" cx="447.5" stroke="#000" fill="#EDB6DC"/>
  <ellipse ry="97" rx="11" id="svg_115" cy="118" cx="627" stroke="#000" fill="#EDB6DC"/>
  <ellipse ry="56" rx="36" id="svg_116" cy="151" cx="390" stroke="#000" fill="#97944B"/>
  <ellipse ry="34" rx="47" id="svg_117" cy="410" cx="185" stroke="#000" fill="#FFB27C"/>
  <ellipse ry="6" rx="38" id="svg_118" cy="425" cx="302" stroke="#000" fill="#FFB27C"/>
  <ellipse ry="21.5" rx="28" id="svg_119" cy="576.5" cx="224" stroke="#000" fill="#FFB27C"/>
  <ellipse ry="81.5" rx="46.5" id="svg_120" cy="108.5" cx="142.5" stroke="#000" fill="#FFB27C"/>
  <ellipse ry="125" rx="11.5" id="svg_121" cy="422" cx="711.5" stroke="#000" fill="#B8874D"/>
  <ellipse ry="11" rx="160.5" id="svg_122" cy="581" cx="403.5" stroke="#000" fill="#B8874D"/>
  <ellipse ry="0.5" rx="43.5" id="svg_123" cy="567.5" cx="632.5" stroke="#000" fill="#B8874D"/>
  <ellipse ry="78" rx="24" id="svg_124" cy="122" cx="579" stroke="#000" fill="#B8874D"/>
  <ellipse ry="74.5" rx="11.5" id="svg_125" cy="138.5" cx="470.5" stroke="#000" fill="#B8874D"/>
  <ellipse ry="100.5" rx="12" id="svg_126" cy="140.5" cx="709" stroke="#000" fill="#B8874D"/>
  <path id="svg_127" d="m244.77502,215.695l0,-154l132.99999,154l-132.99999,0z" stroke="#000" fill="#CFCA6D"/>
  <path id="svg_128" d="m335.32001,341.78498l0,-32.00003l156.99999,32.00003l-156.99999,0z" stroke="#000" fill="#5B9BA2"/>
  <path id="svg_129" d="m617.38498,452.71997l0,-197l43.00001,197l-43.00001,0z" stroke="#000" fill="#74556D"/>
  <path id="svg_130" d="m35.45501,309.94499l0,-263.00001l172.99999,263.00001l-172.99999,0z" stroke="#000" fill="#894F3F"/>
  <path id="svg_131" d="m448.74999,30.85999l0,-2l335.99998,2l-335.99998,0z" stroke="#000" fill="#894F3F"/>
  <path id="svg_132" d="m731.23504,561.68001l0,-367.99999l20.00001,367.99999l-20.00001,0z" stroke="#000" fill="#894F3F"/>
  <path id="svg_133" d="m281.461,272.31506l-25.58353,-234.50007l46,234.50007l-46,234.49994l25.58353,-234.49994z" stroke="#000" fill="#C48157"/>
  <path id="svg_134" d="m519.23927,115.37008l-12.79176,-123.50004l23,123.50004l-23,123.49997l12.79176,-123.49997z" stroke="#000" fill="#E6C36A"/>
  <path id="svg_135" d="m115.74952,548.11l-46.71774,-27.50003l83.99999,27.50003l-83.99999,27.50002l46.71774,-27.50002z" stroke="#000" fill="#4B252D"/>
  <path id="svg_136" d="m191.68202,45.15994l-7.23013,-23l13,23l-13,22.99999l7.23013,-22.99999z" stroke="#000" fill="#894F3F"/>
 </g>
</svg>